<svg xmlns="http://www.w3.org/2000/svg" viewBox="0 0 36 24" width="48" height="32">
  <rect width="36" height="24" rx="3" fill="#000"/>
  <g fill="#fff" transform="translate(6,4)">
    <path d="M4 8c0-2 1.6-3.7 3.7-3.7 1.1 0 2 .4 2.7.4.1 0 .3-1.2 1-2 0 0-.9-.2-2-.2C7 2.5 3.8 4.1 3.2 6.8 2.4 9.6 4 11.6 6 11.6c.9 0 1.6-.3 2.3-.6-.1-.6-.2-1.4.1-2 .4-.9 1.2-1.6 2.2-1.6.6 0 1 .2 1.3.4.4-.7.6-1.3.6-1.9 0-1.7-1-3.1-3-3.3C10.2 2 8.3 3 7.4 4.7 6.5 6.4 6.7 8.7 8 9.9c-1.1.3-2.6.4-4 .1C4.6 9.8 4 9 4 8z" />
    <path d="M14 5.8c.7-.8 1.2-2 1.1-3.2-1.2.1-2.6.8-3.4 1.7-.7.8-1.2 2-1.1 3.2 1.2-.1 2.6-.8 3.4-1.7z" />
  </g>
</svg>